<?xml version="1.0" encoding="UTF-8"?>
<svg width="22px" height="43px" viewBox="0 0 22 43" version="1.1" xmlns="http://www.w3.org/2000/svg" xmlns:xlink="http://www.w3.org/1999/xlink">
    <!-- Generator: Sketch 47.1 (45422) - http://www.bohemiancoding.com/sketch -->
    <title>Shapefb</title>
    <desc>Created with Sketch.</desc>
    <defs></defs>
    <g id="Main" stroke="none" stroke-width="1" fill="none" fill-rule="evenodd">
        <g id="Home" transform="translate(-95.000000, -3620.000000)" fill-rule="nonzero" fill="#FFFFFF">
            <g id="Connect-with-us" transform="translate(64.000000, 3507.000000)">
                <g id="Facebook" transform="translate(0.000000, 93.000000)">
                    <g id="flaticon1510086936-svg" transform="translate(31.000000, 20.000000)">
                        <path d="M0.702526727,22.9017832 L5.4764591,22.9017832 L5.4764591,42.306457 C5.4764591,42.6895937 5.79084811,43 6.17890077,43 L14.2733118,43 C14.6613645,43 14.9757535,42.6895937 14.9757535,42.306457 L14.9757535,22.9932422 L20.4638661,22.9932422 C20.820701,22.9932422 21.1209697,22.7288594 21.1617144,22.3788965 L21.9952365,15.2351016 C22.0181182,15.0385781 21.9550873,14.8417187 21.8218803,14.6942422 C21.6885882,14.5466816 21.4977942,14.4621934 21.2975583,14.4621934 L14.9760937,14.4621934 L14.9760937,9.9840625 C14.9760937,8.63418164 15.7122199,7.949625 17.1643977,7.949625 C17.3713535,7.949625 21.2975583,7.949625 21.2975583,7.949625 C21.685611,7.949625 22,7.63905078 22,7.25608203 L22,0.698666016 C22,0.315529297 21.685611,0.00512304688 21.2975583,0.00512304688 L15.6013842,0.00512304688 C15.5612349,0.00319140625 15.4720049,0 15.3404992,0 C14.3521642,0 10.9167669,0.191568359 8.20303517,2.65642578 C5.19626501,5.38793359 5.61425948,8.65836914 5.71412222,9.22543164 L5.71412222,14.4620254 L0.702441665,14.4620254 C0.314389004,14.4620254 0,14.7724316 0,15.1555684 L0,22.2081562 C8.50619599e-05,22.591209 0.314474066,22.9017832 0.702526727,22.9017832 Z" id="Shape"></path>
                    </g>
                </g>
            </g>
        </g>
    </g>
</svg>