<?xml version="1.0" encoding="UTF-8"?>
<svg width="43px" height="43px" viewBox="0 0 43 43" version="1.1" xmlns="http://www.w3.org/2000/svg" xmlns:xlink="http://www.w3.org/1999/xlink">
    <!-- Generator: Sketch 47.1 (45422) - http://www.bohemiancoding.com/sketch -->
    <title>flaticon1510087061-svg</title>
    <desc>Created with Sketch.</desc>
    <defs></defs>
    <g id="Main" stroke="none" stroke-width="1" fill="none" fill-rule="evenodd">
        <g id="Home" transform="translate(-476.000000, -3620.000000)" fill-rule="nonzero" fill="#FFFFFF">
            <g id="Connect-with-us" transform="translate(64.000000, 3507.000000)">
                <g id="Instagram" transform="translate(392.000000, 93.000000)">
                    <g id="flaticon1510087061-svg" transform="translate(20.000000, 20.000000)">
                        <path d="M31.1333002,0 L11.8661911,0 C5.3231773,0 0,5.32343164 0,11.8664454 L0,31.1335546 C0,37.6768227 5.3231773,43 11.8661911,43 L31.1333002,43 C37.6768227,43 43,37.6765684 43,31.1335546 L43,11.8664454 C43.0002543,5.32343164 37.6768227,0 31.1333002,0 Z M39.1850859,31.1335546 C39.1850859,35.5731388 35.5731388,39.1848316 31.1335546,39.1848316 L11.8661911,39.1848316 C7.42686115,39.1850859 3.8151684,35.5731388 3.8151684,31.1335546 L3.8151684,11.8664454 C3.8151684,7.4271155 7.42686115,3.8151684 11.8661911,3.8151684 L31.1333002,3.8151684 C35.5728845,3.8151684 39.1848316,7.4271155 39.1848316,11.8664454 L39.1848316,31.1335546 L39.1850859,31.1335546 Z" id="Shape"></path>
                        <path d="M21,10 C14.9345086,10 10,14.9346219 10,21.0002525 C10,27.0656306 14.9345086,32 21,32 C27.0654914,32 32,27.0656306 32,21.0002525 C32,14.9346219 27.0654914,10 21,10 Z M21,28.2120426 C17.0232537,28.2120426 13.7876179,24.9768376 13.7876179,21 C13.7876179,17.0229099 17.0230012,13.7874524 21,13.7874524 C24.9769988,13.7874524 28.2123821,17.0229099 28.2123821,21 C28.2123821,24.9768376 24.9767463,28.2120426 21,28.2120426 Z" id="Shape"></path>
                        <path d="M32.5,7 C31.8431818,7 31.1979545,7.26590909 30.7340909,7.73181818 C30.2679545,8.19545455 30,8.84090909 30,9.5 C30,10.1570455 30.2681818,10.8022727 30.7340909,11.2681818 C31.1977273,11.7318182 31.8431818,12 32.5,12 C33.1590909,12 33.8022727,11.7318182 34.2681818,11.2681818 C34.7340909,10.8022727 35,10.1568182 35,9.5 C35,8.84090909 34.7340909,8.19545455 34.2681818,7.73181818 C33.8045455,7.26590909 33.1590909,7 32.5,7 Z" id="Shape"></path>
                    </g>
                </g>
            </g>
        </g>
    </g>
</svg>