<?xml version="1.0" encoding="UTF-8"?>
<svg width="60px" height="43px" viewBox="0 0 60 43" version="1.1" xmlns="http://www.w3.org/2000/svg" xmlns:xlink="http://www.w3.org/1999/xlink">
    <!-- Generator: Sketch 47.1 (45422) - http://www.bohemiancoding.com/sketch -->
    <title>Shape</title>
    <desc>Created with Sketch.</desc>
    <defs></defs>
    <g id="Main" stroke="none" stroke-width="1" fill="none" fill-rule="evenodd">
        <g id="Home" transform="translate(-868.000000, -3620.000000)" fill-rule="nonzero" fill="#FFFFFF">
            <g id="Connect-with-us" transform="translate(64.000000, 3507.000000)">
                <g id="Email" transform="translate(784.000000, 93.000000)">
                    <g id="flaticon1510087450-svg" transform="translate(20.000000, 20.000000)">
                        <path d="M57.1917695,1.981893 C56.4839506,1.27407407 55.6345679,0.778600823 54.7144033,0.424691358 C54.7144033,0.424691358 54.7144033,0.424691358 54.6436214,0.424691358 C54.4312757,0.353909465 54.21893,0.283127572 54.0065844,0.212345679 C53.9358025,0.212345679 53.9358025,0.212345679 53.8650206,0.212345679 C53.6526749,0.141563786 53.4403292,0.141563786 53.2279835,0.070781893 C53.1572016,0.070781893 53.0864198,0.070781893 53.0864198,0.070781893 C52.8032922,0.070781893 52.5909465,0 52.3078189,0 L7.00740741,0 C6.72427984,0 6.51193416,0 6.22880658,0.070781893 C6.15802469,0.070781893 6.0872428,0.070781893 6.0872428,0.070781893 C5.87489712,0.070781893 5.66255144,0.141563786 5.45020576,0.212345679 C5.37942387,0.212345679 5.37942387,0.212345679 5.30864198,0.212345679 C5.0962963,0.283127572 4.88395062,0.353909465 4.67160494,0.424691358 C4.67160494,0.424691358 4.67160494,0.424691358 4.60082305,0.424691358 C3.68065844,0.778600823 2.83127572,1.34485597 2.12345679,1.981893 C2.0526749,1.981893 2.0526749,2.0526749 1.981893,2.12345679 C1.91111111,2.19423868 1.84032922,2.26502058 1.76954733,2.33580247 C1.69876543,2.47736626 1.55720165,2.54814815 1.48641975,2.68971193 C1.41563786,2.76049383 1.41563786,2.76049383 1.34485597,2.83127572 C1.34485597,2.83127572 1.34485597,2.90205761 1.27407407,2.90205761 C0.495473251,4.0345679 0,5.37942387 0,6.86584362 L0,36.0279835 C0,37.8683128 0.70781893,39.5670782 1.91111111,40.7703704 C1.91111111,40.8411523 1.981893,40.8411523 1.981893,40.9119342 C3.25596708,42.1860082 4.95473251,42.9646091 6.86584362,42.9646091 L52.3078189,42.9646091 C54.21893,42.9646091 55.9176955,42.1860082 57.1917695,40.9119342 C58.4658436,39.6378601 59.2444444,37.9390947 59.2444444,36.0279835 L59.2444444,6.86584362 C59.2444444,4.95473251 58.4658436,3.25596708 57.1917695,1.981893 Z M6.29958848,3.60987654 C6.51193416,3.53909465 6.72427984,3.53909465 6.93662551,3.53909465 L52.3078189,3.53909465 C52.5201646,3.53909465 52.7325103,3.53909465 52.944856,3.60987654 C53.1572016,3.68065844 53.3695473,3.75144033 53.581893,3.82222222 L42.8938272,12.599177 L30.9316872,22.2962963 L30.8609053,22.3670782 C30.5069959,22.6502058 30.0823045,22.7917695 29.6576132,22.7917695 C29.2329218,22.7917695 28.8082305,22.6502058 28.454321,22.3670782 L16.4213992,12.599177 L5.66255144,3.82222222 C5.87489712,3.75144033 6.0872428,3.68065844 6.29958848,3.60987654 Z M55.6345679,36.0279835 C55.6345679,36.9481481 55.2806584,37.726749 54.6436214,38.363786 C54.0773663,38.9300412 53.2279835,39.3547325 52.3078189,39.3547325 L7.00740741,39.3547325 C6.0872428,39.3547325 5.30864198,39.000823 4.67160494,38.363786 L4.60082305,38.2930041 C4.0345679,37.726749 3.68065844,36.9481481 3.68065844,36.0279835 L3.68065844,6.93662551 L14.1563786,15.4304527 L20.7390947,20.8098765 L10.4049383,30.6485597 C9.69711934,31.3563786 9.62633745,32.4888889 10.3341564,33.1967078 C11.0419753,33.9045267 12.1744856,33.9753086 12.8823045,33.2674897 L23.5703704,23.0748971 L26.1893004,25.1983539 C27.2510288,26.0477366 28.454321,26.472428 29.6576132,26.4016461 C30.9316872,26.4016461 32.1349794,25.9769547 33.1259259,25.127572 L33.1967078,25.0567901 L35.744856,23.0041152 L46.5037037,33.2674897 C47.2115226,33.9753086 48.3440329,33.9045267 49.0518519,33.1967078 C49.7596708,32.4888889 49.6888889,31.3563786 48.98107,30.6485597 L38.5761317,20.7390947 L45.1588477,15.4304527 L55.6345679,6.93662551 L55.6345679,36.0279835 Z" id="Shape"></path>
                    </g>
                </g>
            </g>
        </g>
    </g>
</svg>